<svg width="13" height="13" viewBox="0 0 13 13" fill="none" xmlns="http://www.w3.org/2000/svg">
<path d="M10.1546 11.4576C11.1735 11.4576 11.9996 10.6315 11.9996 9.61258C11.9996 8.59361 11.1735 7.76758 10.1546 7.76758C9.1356 7.76758 8.30957 8.59361 8.30957 9.61258C8.30957 10.6315 9.1356 11.4576 10.1546 11.4576Z" stroke="#00A998" stroke-width="1.5" stroke-miterlimit="10" stroke-linecap="round" stroke-linejoin="round"/>
<path d="M9.84499 4.69C10.864 4.69 11.69 3.86397 11.69 2.845C11.69 1.82603 10.864 1 9.84499 1C8.82603 1 8 1.82603 8 2.845C8 3.86397 8.82603 4.69 9.84499 4.69Z" stroke="#00A998" stroke-width="1.5" stroke-miterlimit="10" stroke-linecap="round" stroke-linejoin="round"/>
<path d="M2.84499 11.69C3.86396 11.69 4.69 10.864 4.69 9.845C4.69 8.82603 3.86396 8 2.84499 8C1.82603 8 1 8.82603 1 9.845C1 10.864 1.82603 11.69 2.84499 11.69Z" stroke="#00A998" stroke-width="1.5" stroke-miterlimit="10" stroke-linecap="round" stroke-linejoin="round"/>
<path d="M2.84499 4.69C3.86396 4.69 4.69 3.86397 4.69 2.845C4.69 1.82603 3.86396 1 2.84499 1C1.82603 1 1 1.82603 1 2.845C1 3.86397 1.82603 4.69 2.84499 4.69Z" stroke="#00A998" stroke-width="1.5" stroke-miterlimit="10" stroke-linecap="round" stroke-linejoin="round"/>
</svg>
