<svg width="18" height="16" viewBox="0 0 18 16" fill="none" xmlns="http://www.w3.org/2000/svg">
<path d="M1.5 8.66007V7.34007C1.5 6.56007 2.1375 5.91507 2.925 5.91507C4.2825 5.91507 4.8375 4.95507 4.155 3.77757C3.765 3.10257 3.9975 2.22507 4.68 1.83507L5.9775 1.09257C6.57 0.740074 7.335 0.950074 7.6875 1.54257L7.77 1.68507C8.445 2.86257 9.555 2.86257 10.2375 1.68507L10.32 1.54257C10.6725 0.950074 11.4375 0.740074 12.03 1.09257L13.3275 1.83507C14.01 2.22507 14.2425 3.10257 13.8525 3.77757C13.17 4.95507 13.725 5.91507 15.0825 5.91507C15.8625 5.91507 16.5075 6.55257 16.5075 7.34007V8.66007C16.5075 9.44007 15.87 10.0851 15.0825 10.0851C13.725 10.0851 13.17 11.0451 13.8525 12.2226C14.2425 12.9051 14.01 13.7751 13.3275 14.1651L12.03 14.9076C11.4375 15.2601 10.6725 15.0501 10.32 14.4576L10.2375 14.3151C9.5625 13.1376 8.4525 13.1376 7.77 14.3151L7.6875 14.4576C7.335 15.0501 6.57 15.2601 5.9775 14.9076L4.68 14.1651C3.9975 13.7751 3.765 12.8976 4.155 12.2226C4.8375 11.0451 4.2825 10.0851 2.925 10.0851C2.1375 10.0851 1.5 9.44007 1.5 8.66007Z" stroke="#6A7D89" stroke-width="1.5" stroke-miterlimit="10" stroke-linecap="round" stroke-linejoin="round"/>
<path d="M9.25 10.5C10.4926 10.5 11.5 9.49264 11.5 8.25C11.5 7.00736 10.4926 6 9.25 6C8.00736 6 7 7.00736 7 8.25C7 9.49264 8.00736 10.5 9.25 10.5Z" stroke="#6A7D89" stroke-width="1.5" stroke-miterlimit="10" stroke-linecap="round" stroke-linejoin="round"/>
</svg>
