<svg width="17" height="17" viewBox="0 0 17 17" fill="none" xmlns="http://www.w3.org/2000/svg">
<path d="M8.0003 9.00578L8.00021 9.0057L8 9.00538V5.25092L8.00021 5.2506C8.00049 5.25032 8.00106 5.25 8.00185 5.25C8.00264 5.25 8.0032 5.25032 8.00348 5.2506L8.0037 5.25092V8.69465V9.00559L8.22369 9.22531L10.25 11.2491L10.2498 11.2494C10.2495 11.2497 10.249 11.25 10.2482 11.25C10.2477 11.25 10.2473 11.2499 10.247 11.2498L8.0003 9.00578Z" fill="#6A7D89" stroke="#6A7D89" stroke-width="1.5"/>
<mask id="path-2-inside-1_2_13" fill="white">
<path d="M8.25 0C6.21878 0.00144813 4.25984 0.753927 2.75 2.11269V0.6875C2.75 0.505164 2.67757 0.330295 2.54864 0.201364C2.4197 0.0724328 2.24484 0 2.0625 0C1.88016 0 1.7053 0.0724328 1.57636 0.201364C1.44743 0.330295 1.375 0.505164 1.375 0.6875V2.75C1.375 3.29701 1.5923 3.82161 1.97909 4.20841C2.36589 4.5952 2.89049 4.8125 3.4375 4.8125H5.5C5.68234 4.8125 5.8572 4.74007 5.98613 4.61113C6.11507 4.4822 6.1875 4.30734 6.1875 4.125C6.1875 3.94266 6.11507 3.76779 5.98613 3.63886C5.8572 3.50993 5.68234 3.4375 5.5 3.4375H3.4375C3.41432 3.43406 3.39136 3.42924 3.36875 3.42306C4.48905 2.29476 5.96621 1.59024 7.54811 1.42977C9.13 1.2693 10.7186 1.66282 12.0426 2.54317C13.3667 3.42352 14.3441 4.73611 14.8082 6.2569C15.2722 7.77769 15.1941 9.41239 14.5871 10.882C13.9801 12.3516 12.8818 13.5649 11.4798 14.3149C10.0778 15.065 8.45899 15.3052 6.89962 14.9945C5.34025 14.6839 3.93703 13.8417 2.92948 12.6116C1.92192 11.3816 1.3725 9.84001 1.375 8.25C1.375 8.06766 1.30257 7.89279 1.17364 7.76386C1.0447 7.63493 0.869836 7.5625 0.6875 7.5625C0.505164 7.5625 0.330295 7.63493 0.201364 7.76386C0.0724328 7.89279 0 8.06766 0 8.25C0 9.88169 0.483854 11.4767 1.39038 12.8335C2.2969 14.1902 3.58537 15.2476 5.09286 15.872C6.60035 16.4964 8.25915 16.6598 9.85949 16.3415C11.4598 16.0231 12.9298 15.2374 14.0836 14.0836C15.2374 12.9298 16.0231 11.4598 16.3415 9.85949C16.6598 8.25915 16.4964 6.60035 15.872 5.09286C15.2476 3.58537 14.1902 2.2969 12.8335 1.39038C11.4767 0.483854 9.88169 0 8.25 0V0Z"/>
</mask>
<path d="M8.25 0C6.21878 0.00144813 4.25984 0.753927 2.75 2.11269V0.6875C2.75 0.505164 2.67757 0.330295 2.54864 0.201364C2.4197 0.0724328 2.24484 0 2.0625 0C1.88016 0 1.7053 0.0724328 1.57636 0.201364C1.44743 0.330295 1.375 0.505164 1.375 0.6875V2.75C1.375 3.29701 1.5923 3.82161 1.97909 4.20841C2.36589 4.5952 2.89049 4.8125 3.4375 4.8125H5.5C5.68234 4.8125 5.8572 4.74007 5.98613 4.61113C6.11507 4.4822 6.1875 4.30734 6.1875 4.125C6.1875 3.94266 6.11507 3.76779 5.98613 3.63886C5.8572 3.50993 5.68234 3.4375 5.5 3.4375H3.4375C3.41432 3.43406 3.39136 3.42924 3.36875 3.42306C4.48905 2.29476 5.96621 1.59024 7.54811 1.42977C9.13 1.2693 10.7186 1.66282 12.0426 2.54317C13.3667 3.42352 14.3441 4.73611 14.8082 6.2569C15.2722 7.77769 15.1941 9.41239 14.5871 10.882C13.9801 12.3516 12.8818 13.5649 11.4798 14.3149C10.0778 15.065 8.45899 15.3052 6.89962 14.9945C5.34025 14.6839 3.93703 13.8417 2.92948 12.6116C1.92192 11.3816 1.3725 9.84001 1.375 8.25C1.375 8.06766 1.30257 7.89279 1.17364 7.76386C1.0447 7.63493 0.869836 7.5625 0.6875 7.5625C0.505164 7.5625 0.330295 7.63493 0.201364 7.76386C0.0724328 7.89279 0 8.06766 0 8.25C0 9.88169 0.483854 11.4767 1.39038 12.8335C2.2969 14.1902 3.58537 15.2476 5.09286 15.872C6.60035 16.4964 8.25915 16.6598 9.85949 16.3415C11.4598 16.0231 12.9298 15.2374 14.0836 14.0836C15.2374 12.9298 16.0231 11.4598 16.3415 9.85949C16.6598 8.25915 16.4964 6.60035 15.872 5.09286C15.2476 3.58537 14.1902 2.2969 12.8335 1.39038C11.4767 0.483854 9.88169 0 8.25 0V0Z" fill="#6A7D89"/>
<path d="M8.25 0H9.75V-1.50107L8.24893 -1.5L8.25 0ZM2.75 2.11269H1.25V5.48057L3.75341 3.22766L2.75 2.11269ZM2.75 0.6875L4.25 0.6875L2.75 0.6875ZM2.0625 0L2.0625 -1.5L2.0625 0ZM1.375 0.6875H-0.125H1.375ZM1.375 2.75L-0.125 2.75L1.375 2.75ZM3.4375 4.8125V6.3125V4.8125ZM3.4375 3.4375L3.2176 4.92129L3.32695 4.9375H3.4375V3.4375ZM3.36875 3.42306L2.30432 2.36619L0.491834 4.19163L2.9732 4.86997L3.36875 3.42306ZM1.375 8.25L2.875 8.25235V8.25L1.375 8.25ZM0 8.25H-1.5H0ZM8.25 0H6.75V1.5L8.25 1.5L8.25 0ZM8.24893 -1.5C5.84754 -1.49829 3.53159 -0.608674 1.74659 0.997711L3.75341 3.22766C4.98809 2.11653 6.59003 1.50118 8.25107 1.5L8.24893 -1.5ZM4.25 2.11269V0.6875H1.25V2.11269H4.25ZM4.25 0.6875C4.25 0.107339 4.01953 -0.44906 3.6093 -0.859296L1.48798 1.26202C1.3356 1.10965 1.25 0.902988 1.25 0.6875L4.25 0.6875ZM3.6093 -0.859296C3.19906 -1.26953 2.64266 -1.5 2.0625 -1.5L2.0625 1.5C1.84701 1.5 1.64035 1.4144 1.48798 1.26202L3.6093 -0.859296ZM2.0625 -1.5C1.48234 -1.5 0.925939 -1.26953 0.515704 -0.859296L2.63702 1.26202C2.48465 1.4144 2.27799 1.5 2.0625 1.5L2.0625 -1.5ZM0.515704 -0.859296C0.105468 -0.44906 -0.125 0.107339 -0.125 0.6875L2.875 0.6875C2.875 0.902988 2.7894 1.10965 2.63702 1.26202L0.515704 -0.859296ZM-0.125 0.6875V2.75H2.875V0.6875H-0.125ZM-0.125 2.75C-0.125 3.69483 0.250334 4.60097 0.918432 5.26907L3.03975 3.14775C2.93426 3.04226 2.875 2.89918 2.875 2.75L-0.125 2.75ZM0.918432 5.26907C1.58653 5.93717 2.49267 6.3125 3.4375 6.3125L3.4375 3.3125C3.28832 3.3125 3.14524 3.25324 3.03975 3.14775L0.918432 5.26907ZM3.4375 6.3125H5.5V3.3125H3.4375V6.3125ZM5.5 6.3125C6.08016 6.3125 6.63656 6.08203 7.04679 5.6718L4.92547 3.55047C5.07785 3.3981 5.28451 3.3125 5.5 3.3125V6.3125ZM7.04679 5.6718C7.45703 5.26156 7.6875 4.70516 7.6875 4.125H4.6875C4.6875 3.90951 4.7731 3.70285 4.92547 3.55047L7.04679 5.6718ZM7.6875 4.125C7.6875 3.54484 7.45703 2.98844 7.04679 2.5782L4.92547 4.69952C4.7731 4.54715 4.6875 4.34049 4.6875 4.125H7.6875ZM7.04679 2.5782C6.63656 2.16797 6.08016 1.9375 5.5 1.9375V4.9375C5.28451 4.9375 5.07785 4.8519 4.92547 4.69952L7.04679 2.5782ZM5.5 1.9375H3.4375V4.9375H5.5V1.9375ZM3.6574 1.95371C3.69345 1.95905 3.72914 1.96654 3.7643 1.97615L2.9732 4.86997C3.05357 4.89194 3.13518 4.90908 3.2176 4.92129L3.6574 1.95371ZM4.43318 4.47994C5.30873 3.59813 6.46319 3.04752 7.69949 2.92211L7.39672 -0.0625715C5.46924 0.132955 3.66936 0.991384 2.30432 2.36619L4.43318 4.47994ZM7.69949 2.92211C8.93579 2.7967 10.1773 3.10425 11.2121 3.79227L12.8731 1.29407C11.2598 0.221398 9.3242 -0.258098 7.39672 -0.0625715L7.69949 2.92211ZM11.2121 3.79227C12.2469 4.48029 13.0108 5.50613 13.3735 6.69468L16.2429 5.81912C15.6775 3.9661 14.4864 2.36674 12.8731 1.29407L11.2121 3.79227ZM13.3735 6.69468C13.7362 7.88323 13.6751 9.1608 13.2007 10.3093L15.9735 11.4546C16.7131 9.66398 16.8083 7.67215 16.2429 5.81912L13.3735 6.69468ZM13.2007 10.3093C12.7263 11.4579 11.868 12.4061 10.7723 12.9923L12.1874 15.6376C13.8957 14.7237 15.2339 13.2453 15.9735 11.4546L13.2007 10.3093ZM10.7723 12.9923C9.67657 13.5785 8.41138 13.7662 7.19268 13.5234L6.60656 16.4656C8.50661 16.8441 10.4791 16.5515 12.1874 15.6376L10.7723 12.9923ZM7.19268 13.5234C5.97398 13.2806 4.87731 12.6224 4.08987 11.6611L1.76908 13.5621C2.99675 15.0609 4.70652 16.0871 6.60656 16.4656L7.19268 13.5234ZM4.08987 11.6611C3.30244 10.6998 2.87305 9.495 2.875 8.25235L-0.124998 8.24764C-0.128039 10.185 0.54141 12.0634 1.76908 13.5621L4.08987 11.6611ZM2.875 8.25C2.875 7.66984 2.64453 7.11344 2.2343 6.7032L0.112976 8.82452C-0.0393977 8.67215 -0.125 8.46549 -0.125 8.25L2.875 8.25ZM2.2343 6.7032C1.82406 6.29297 1.26766 6.0625 0.6875 6.0625V9.0625C0.472011 9.0625 0.265348 8.9769 0.112976 8.82452L2.2343 6.7032ZM0.6875 6.0625C0.107338 6.0625 -0.449061 6.29297 -0.859296 6.7032L1.26202 8.82452C1.10965 8.9769 0.902989 9.0625 0.6875 9.0625V6.0625ZM-0.859296 6.7032C-1.26953 7.11344 -1.5 7.66984 -1.5 8.25L1.5 8.25C1.5 8.46549 1.4144 8.67215 1.26202 8.82452L-0.859296 6.7032ZM-1.5 8.25C-1.5 10.1784 -0.928173 12.0634 0.143171 13.6668L2.63758 12.0001C1.89588 10.8901 1.5 9.58502 1.5 8.25H-1.5ZM0.143171 13.6668C1.21451 15.2702 2.73726 16.5199 4.51884 17.2578L5.66689 14.4862C4.43348 13.9753 3.37928 13.1101 2.63758 12.0001L0.143171 13.6668ZM4.51884 17.2578C6.30041 17.9958 8.26081 18.1889 10.1521 17.8127L9.56686 14.8703C8.25749 15.1307 6.90029 14.9971 5.66689 14.4862L4.51884 17.2578ZM10.1521 17.8127C12.0434 17.4364 13.7807 16.5079 15.1443 15.1443L13.023 13.023C12.079 13.967 10.8762 14.6098 9.56686 14.8703L10.1521 17.8127ZM15.1443 15.1443C16.5079 13.7807 17.4364 12.0434 17.8127 10.1521L14.8703 9.56686C14.6098 10.8762 13.967 12.079 13.023 13.023L15.1443 15.1443ZM17.8127 10.1521C18.1889 8.26081 17.9958 6.30041 17.2578 4.51884L14.4862 5.66689C14.9971 6.90029 15.1307 8.25749 14.8703 9.56686L17.8127 10.1521ZM17.2578 4.51884C16.5199 2.73726 15.2702 1.21451 13.6668 0.143171L12.0001 2.63758C13.1101 3.37928 13.9753 4.43348 14.4862 5.66689L17.2578 4.51884ZM13.6668 0.143171C12.0634 -0.928173 10.1784 -1.5 8.25 -1.5L8.25 1.5C9.58502 1.5 10.8901 1.89588 12.0001 2.63758L13.6668 0.143171ZM9.75 0V0H6.75V0H9.75Z" fill="#6A7D89" mask="url(#path-2-inside-1_2_13)"/>
</svg>
