<svg width="17" height="17" viewBox="0 0 17 17" fill="none" xmlns="http://www.w3.org/2000/svg">
<path d="M4.25 5.5C5.49264 5.5 6.5 4.49264 6.5 3.25C6.5 2.00736 5.49264 1 4.25 1C3.00736 1 2 2.00736 2 3.25C2 4.49264 3.00736 5.5 4.25 5.5Z" stroke="#6A7D89" stroke-width="1.5" stroke-linecap="round" stroke-linejoin="round"/>
<path d="M15.7753 11.9277L13.4278 6.44524C12.6328 4.58524 11.1703 4.51024 10.1878 6.28024L8.77033 8.83774C8.05033 10.1352 6.70783 10.2477 5.77783 9.08524L5.61283 8.87524C4.64533 7.66024 3.28033 7.81024 2.58283 9.19774L1.29283 11.7852C0.385325 13.5852 1.69783 15.7077 3.70783 15.7077H13.2778C15.2278 15.7077 16.5403 13.7202 15.7753 11.9277Z" stroke="#6A7D89" stroke-width="1.5" stroke-linecap="round" stroke-linejoin="round"/>
</svg>
