<svg width="30" height="28" viewBox="0 0 30 28" fill="none" xmlns="http://www.w3.org/2000/svg">
<path d="M29.3238 13.9668C29.3238 21.4338 23.0308 27.5139 15.234 27.5139C7.43716 27.5139 1.1441 21.4338 1.1441 13.9668C1.1441 6.49987 7.43716 0.419732 15.234 0.419732C23.0308 0.419732 29.3238 6.49987 29.3238 13.9668Z" fill="white" stroke="#8A9AA4" stroke-width="0.837022"/>
<path d="M20.3994 13.9656C20.3994 16.8344 17.9787 19.187 14.9588 19.187C11.9388 19.187 9.51812 16.8344 9.51812 13.9656C9.51812 11.0968 11.9388 8.74414 14.9588 8.74414C17.9787 8.74414 20.3994 11.0968 20.3994 13.9656Z" fill="white" stroke="#8A9AA4" stroke-width="0.837022"/>
<path d="M25.1412 4.70015L19.1426 10.2058" stroke="#8A9AA4" stroke-width="0.837022"/>
<path d="M11.1901 17.9943L5.19141 23.5" stroke="#8A9AA4" stroke-width="0.837022"/>
<path d="M24.6056 23.4999L18.8634 17.7465" stroke="#8A9AA4" stroke-width="0.837022"/>
<path d="M10.9344 10.3401L5.19267 4.58717" stroke="#8A9AA4" stroke-width="0.837022"/>
</svg>
